<?xml version="1.0" encoding="utf-8"?>
<!-- Generator: Adobe Illustrator 23.0.5, SVG Export Plug-In . SVG Version: 6.00 Build 0)  -->
<svg version="1.1" xmlns="http://www.w3.org/2000/svg" xmlns:xlink="http://www.w3.org/1999/xlink" x="0px" y="0px"
	 viewBox="0 0 5 5" style="enable-background:new 0 0 5 5;" xml:space="preserve">
<g id="Background">
</g>
<g id="Objects">
	<g id="Music_x5F_Symbols">
		<g id="nXxw6M.tif">
			<g>
				<path d="M2.33,4.88C2.29,4.87,2.25,4.86,2.21,4.85C2,4.78,1.88,4.61,1.88,4.42c0.01-0.15,0.14-0.28,0.3-0.28
					c0.15,0,0.28,0.11,0.28,0.25c0.01,0.17-0.09,0.27-0.27,0.27c-0.01,0-0.02,0-0.04,0.01C2.17,4.68,2.18,4.7,2.2,4.71
					c0.26,0.16,0.61,0.01,0.65-0.27c0.02-0.12,0-0.24-0.02-0.35C2.82,3.98,2.8,3.88,2.79,3.77c-0.03,0-0.06,0.01-0.1,0.01
					C2.44,3.8,2.22,3.73,2.03,3.59C1.7,3.37,1.57,3.07,1.6,2.71C1.61,2.49,1.72,2.3,1.86,2.13c0.16-0.19,0.35-0.34,0.55-0.49
					C2.46,1.6,2.47,1.57,2.46,1.51C2.43,1.32,2.41,1.13,2.43,0.94c0.02-0.23,0.1-0.44,0.23-0.63c0.04-0.06,0.1-0.12,0.17-0.16
					C2.9,0.11,2.94,0.12,2.99,0.18c0.08,0.1,0.12,0.21,0.15,0.32C3.22,0.78,3.2,1.06,3.11,1.34C3.06,1.48,2.97,1.61,2.86,1.72
					C2.79,1.78,2.72,1.84,2.65,1.9C2.62,1.92,2.62,1.95,2.62,1.98c0.02,0.15,0.04,0.29,0.07,0.45c0.05,0,0.09,0,0.14,0
					C3.11,2.46,3.3,2.61,3.37,2.87C3.44,3.09,3.42,3.31,3.26,3.5C3.17,3.62,3.05,3.69,2.91,3.74c-0.01,0-0.02,0.01-0.03,0.01
					c0.01,0.09,0.03,0.18,0.04,0.28c0.01,0.1,0.03,0.2,0.04,0.3c0.01,0.08,0,0.17-0.03,0.24c-0.07,0.16-0.2,0.25-0.38,0.29
					C2.53,4.87,2.5,4.87,2.47,4.88C2.42,4.88,2.38,4.88,2.33,4.88z M2.53,2.01c0,0-0.01,0-0.01-0.01c-0.15,0.13-0.3,0.25-0.44,0.39
					C2.02,2.45,1.96,2.53,1.91,2.61C1.8,2.78,1.76,2.95,1.8,3.14C1.88,3.5,2.29,3.79,2.77,3.67C2.73,3.37,2.69,3.06,2.64,2.75
					c-0.02,0-0.03,0.01-0.04,0.01C2.45,2.8,2.36,2.89,2.32,3.02C2.27,3.18,2.34,3.34,2.5,3.41c0.01,0.01,0.02,0.02,0.03,0.03
					c-0.02,0-0.03,0.01-0.05,0.01c-0.01,0-0.02,0-0.02,0c-0.1-0.02-0.17-0.08-0.23-0.16C2.09,3.1,2.11,2.82,2.29,2.63
					C2.37,2.54,2.47,2.48,2.6,2.44C2.58,2.29,2.55,2.15,2.53,2.01z M2.56,1.52C2.58,1.51,2.6,1.49,2.62,1.48
					C2.8,1.33,2.96,1.16,3.03,0.94c0.03-0.09,0.05-0.18,0.04-0.27c-0.02-0.11-0.12-0.16-0.22-0.1C2.81,0.58,2.78,0.61,2.75,0.64
					C2.68,0.72,2.64,0.81,2.6,0.91C2.52,1.11,2.51,1.31,2.56,1.52z M2.73,2.75c0.04,0.3,0.09,0.6,0.13,0.9
					C3.1,3.59,3.23,3.36,3.18,3.1C3.15,2.9,2.94,2.74,2.73,2.75z"/>
			</g>
		</g>
	</g>
</g>
</svg>
